<svg width="89" height="26" viewBox="0 0 89 26" fill="none" xmlns="http://www.w3.org/2000/svg">
<g clip-path="url(#clip0_101_5539)">
<path d="M3.32005 24.724H2.58405C2.58405 22.9533 3.08538 19.7213 4.08805 15.028C5.09072 10.3346 5.64538 7.52929 5.75205 6.61196C5.88005 5.67329 5.95472 4.96929 5.97605 4.49996C3.97072 4.54263 2.37072 4.85196 1.17605 5.42796C0.557381 4.72396 0.173381 3.68929 0.0240479 2.32396C1.06938 1.96129 2.86138 1.77996 5.40005 1.77996L15.48 2.09996C15.9707 2.09996 16.7493 2.07863 17.816 2.03596C17.9013 2.71863 17.944 3.29463 17.944 3.76396C17.944 4.76663 17.3147 5.26796 16.056 5.26796C15.672 5.26796 15.064 5.20396 14.232 5.07596C13.4213 4.94796 12.7067 4.87329 12.088 4.85196C12.024 5.53463 11.4693 8.30796 10.424 13.172C9.40005 18.036 8.88805 21.6093 8.88805 23.892C7.94938 24.4467 6.09338 24.724 3.32005 24.724ZM19.9848 24.884C18.3208 24.884 17.0088 24.3613 16.0488 23.316C15.0888 22.2493 14.6088 20.756 14.6088 18.836C14.6088 16.4893 15.3021 14.5053 16.6888 12.884C18.0754 11.2413 19.8994 10.42 22.1608 10.42L23.6008 10.548C24.1128 10.3986 24.5928 10.324 25.0408 10.324C26.1074 10.324 26.8648 10.6867 27.3128 11.412C27.7821 12.1373 28.0488 13.172 28.1128 14.516C29.0088 14.4733 29.8621 14.3347 30.6728 14.1L31.1208 13.972C31.2701 14.1213 31.3768 14.5693 31.4408 15.316L31.4728 15.668C30.5128 16.1587 29.3394 16.5427 27.9528 16.82C27.4834 19.0813 26.5554 20.9907 25.1688 22.548C23.7821 24.1053 22.0541 24.884 19.9848 24.884ZM20.6248 18.708C20.6248 20.692 21.1261 21.684 22.1288 21.684C22.8328 21.684 23.5474 21.236 24.2728 20.34C25.0194 19.444 25.5314 18.356 25.8088 17.076C23.6328 17.076 22.5448 16.0307 22.5448 13.94C22.5448 13.5773 22.5768 13.204 22.6408 12.82C22.4274 12.82 22.2674 12.852 22.1608 12.916C21.7981 13.3 21.4461 14.0787 21.1048 15.252C20.7848 16.404 20.6248 17.556 20.6248 18.708ZM33.675 10.42L40.2351 10.58C40.9818 10.58 41.675 10.548 42.315 10.484L42.6031 11.572C39.5098 15.156 37.3018 17.8653 35.979 19.7C38.091 20.2547 39.4244 20.5427 39.979 20.564C40.555 20.564 41.0243 20.116 41.3871 19.22L42.7631 19.7C42.3791 23.4547 41.1524 25.332 39.083 25.332C38.3577 25.332 37.3657 24.98 36.107 24.276C34.8697 23.572 34.0698 23.156 33.7071 23.028C32.6831 24.116 31.915 24.66 31.403 24.66C30.9123 24.66 30.3683 24.372 29.771 23.796C29.1737 23.1987 28.875 22.644 28.875 22.132C28.875 21.62 29.2483 20.9907 29.995 20.244C30.763 19.4973 31.5737 19.124 32.427 19.124C32.6403 19.124 32.9604 19.1453 33.3871 19.188C34.6458 18.0147 35.7551 16.468 36.715 14.548C34.1124 14.548 32.1497 14.932 30.827 15.7C30.571 14.676 30.443 13.7907 30.443 13.044C30.443 12.2973 30.4643 11.6467 30.507 11.092C30.8483 10.644 31.9043 10.42 33.675 10.42ZM51.0769 12.5C51.0769 13.4387 50.8101 14.9 50.2768 16.884C49.7434 18.8467 49.4768 20.1267 49.4768 20.724C49.4768 21.3213 49.5942 21.62 49.8288 21.62C50.0634 21.62 50.4902 21.5133 51.1088 21.3L51.3969 21.172L51.9729 22.772C51.2475 23.3267 50.3409 23.8173 49.2528 24.244C48.1861 24.6707 47.2155 24.884 46.3409 24.884C45.4662 24.884 44.7729 24.6387 44.2608 24.148C43.7701 23.6573 43.5247 22.9533 43.5247 22.036C43.5247 21.0973 43.7808 19.6787 44.2929 17.78C44.8261 15.86 45.0928 14.644 45.0928 14.132C45.0928 13.3427 44.8154 12.596 44.2608 11.892L44.0048 11.54L44.1008 10.996C45.2101 10.6547 47.3648 10.484 50.5648 10.484C50.9062 10.868 51.0769 11.54 51.0769 12.5ZM48.6768 7.98796C47.7169 7.98796 46.9594 7.73196 46.4049 7.21996C45.8714 6.70796 45.6049 6.05729 45.6049 5.26796C45.6049 4.45729 45.9355 3.78529 46.5969 3.25196C47.2794 2.69729 48.1008 2.41996 49.0608 2.41996C50.0208 2.41996 50.7674 2.64396 51.3008 3.09196C51.8341 3.53996 52.1008 4.16929 52.1008 4.97996C52.1008 5.79063 51.7701 6.49463 51.1088 7.09196C50.4688 7.68929 49.6581 7.98796 48.6768 7.98796ZM61.6625 22.708C60.9798 23.3053 60.0838 23.8173 58.9745 24.244C57.8652 24.6707 56.8519 24.884 55.9346 24.884C55.0386 24.884 54.3026 24.628 53.7266 24.116C53.1506 23.5827 52.8625 22.8253 52.8625 21.844C52.8625 20.8627 53.3959 18.132 54.4626 13.652C55.5506 9.15063 56.0946 5.81196 56.0946 3.63596C56.0946 3.16663 56.0305 2.56929 55.9025 1.84396C57.9078 1.2893 59.8493 1.01196 61.7266 1.01196C61.9186 1.3533 62.0145 1.90796 62.0145 2.67596C62.0145 4.12663 61.4706 7.29463 60.3825 12.18C59.3158 17.044 58.7826 19.8493 58.7826 20.596C58.7826 21.3427 58.9105 21.716 59.1665 21.716C59.3798 21.716 59.8386 21.5773 60.5425 21.3L60.8946 21.14L61.6625 22.708Z" fill="#333333"/>
<path d="M71.1625 22.708C70.4798 23.3053 69.5839 23.8173 68.4746 24.244C67.3653 24.6707 66.3519 24.884 65.4346 24.884C64.5386 24.884 63.8026 24.628 63.2266 24.116C62.6506 23.5827 62.3625 22.8253 62.3625 21.844C62.3625 20.8627 62.8959 18.132 63.9626 13.652C65.0506 9.15063 65.5945 5.81196 65.5945 3.63596C65.5945 3.16663 65.5305 2.56929 65.4025 1.84396C67.4078 1.2893 69.3493 1.01196 71.2266 1.01196C71.4186 1.3533 71.5146 1.90796 71.5146 2.67596C71.5146 4.12663 70.9705 7.29463 69.8825 12.18C68.8158 17.044 68.2826 19.8493 68.2826 20.596C68.2826 21.3427 68.4105 21.716 68.6665 21.716C68.8798 21.716 69.3386 21.5773 70.0426 21.3L70.3946 21.14L71.1625 22.708ZM87.6385 11.54C87.1905 12.9267 86.8066 14.58 86.4866 16.5C86.1666 18.3987 86.0065 19.732 86.0065 20.5C86.0065 21.2467 86.1238 21.62 86.3585 21.62L87.9586 21.172L88.5345 22.772C87.8519 23.3053 86.9772 23.796 85.9105 24.244C84.8652 24.6707 83.9373 24.884 83.1266 24.884C81.7399 24.884 80.8653 24.2867 80.5026 23.092C78.8173 24.2867 77.3238 24.884 76.0225 24.884C74.7425 24.884 73.7506 24.4147 73.0466 23.476C72.3426 22.5373 71.9906 21.1933 71.9906 19.444C71.9906 17.0333 72.6092 14.9107 73.8465 13.076C75.0838 11.2413 76.7158 10.324 78.7425 10.324C79.8519 10.324 80.9825 10.6333 82.1345 11.252C82.3052 10.868 82.4438 10.5907 82.5505 10.42C84.0865 10.42 85.7825 10.7933 87.6385 11.54ZM78.0065 19.06C78.0065 20.1267 78.0812 20.7987 78.2305 21.076C78.3798 21.3533 78.6572 21.492 79.0625 21.492C79.4678 21.492 79.8625 21.332 80.2465 21.012C80.3318 18.5373 80.7373 15.9453 81.4626 13.236C81.1426 13.044 80.7692 12.948 80.3425 12.948C79.9372 12.948 79.5639 13.1827 79.2226 13.652C78.9026 14.1213 78.6573 14.708 78.4866 15.412C78.1666 16.756 78.0065 17.972 78.0065 19.06Z" fill="#FF6C00"/>
</g>
<defs>
<clipPath id="clip0_101_5539">
<rect width="89" height="25" fill="white" transform="translate(0 0.5)"/>
</clipPath>
</defs>
</svg>
